<svg id="visual" viewBox="0 0 960 540" width="960" height="540" xmlns="http://www.w3.org/2000/svg" xmlns:xlink="http://www.w3.org/1999/xlink" version="1.1"><rect x="0" y="0" width="960" height="540" fill="#8830a0"></rect><defs><linearGradient id="grad1_0" x1="43.8%" y1="0%" x2="100%" y2="100%"><stop offset="14.444444444444446%" stop-color="#8830a0" stop-opacity="1"></stop><stop offset="85.55555555555554%" stop-color="#8830a0" stop-opacity="1"></stop></linearGradient></defs><defs><linearGradient id="grad2_0" x1="0%" y1="0%" x2="56.3%" y2="100%"><stop offset="14.444444444444446%" stop-color="#8830a0" stop-opacity="1"></stop><stop offset="85.55555555555554%" stop-color="#8830a0" stop-opacity="1"></stop></linearGradient></defs><g transform="translate(960, 0)"><path d="M0 486C-65.9 482 -131.8 478 -186 449C-240.1 420 -282.6 366.1 -315.4 315.4C-348.2 264.6 -371.4 217 -398.2 164.9C-425 112.9 -455.5 56.4 -486 0L0 0Z" fill="#31144e"></path></g><g transform="translate(0, 540)"><path d="M0 -486C54.3 -458 108.6 -430 170.3 -411.1C231.9 -392.2 300.9 -382.5 343.7 -343.7C386.4 -304.8 402.9 -237 422.2 -174.9C441.6 -112.8 463.8 -56.4 486 0L0 0Z" fill="#31144e"></path></g></svg>