<svg id="visual" viewBox="0 0 960 540" width="960" height="540" xmlns="http://www.w3.org/2000/svg" xmlns:xlink="http://www.w3.org/1999/xlink" version="1.1"><rect x="0" y="0" width="960" height="540" fill="#31144E"></rect><g fill="#8830a0"><circle r="29" cx="946" cy="115"></circle><circle r="4" cx="931" cy="378"></circle><circle r="4" cx="932" cy="443"></circle><circle r="11" cx="700" cy="368"></circle><circle r="6" cx="629" cy="189"></circle><circle r="15" cx="32" cy="405"></circle><circle r="5" cx="361" cy="413"></circle><circle r="20" cx="83" cy="351"></circle><circle r="11" cx="826" cy="278"></circle><circle r="24" cx="486" cy="441"></circle><circle r="8" cx="154" cy="292"></circle><circle r="25" cx="160" cy="195"></circle><circle r="24" cx="620" cy="273"></circle><circle r="11" cx="710" cy="534"></circle><circle r="7" cx="909" cy="52"></circle><circle r="18" cx="678" cy="3"></circle><circle r="18" cx="382" cy="85"></circle><circle r="10" cx="409" cy="521"></circle><circle r="17" cx="204" cy="471"></circle><circle r="26" cx="668" cy="140"></circle><circle r="16" cx="310" cy="259"></circle><circle r="4" cx="933" cy="182"></circle><circle r="12" cx="716" cy="265"></circle><circle r="12" cx="825" cy="170"></circle><circle r="27" cx="207" cy="120"></circle><circle r="9" cx="784" cy="126"></circle><circle r="15" cx="16" cy="509"></circle><circle r="20" cx="198" cy="9"></circle><circle r="5" cx="8" cy="193"></circle><circle r="27" cx="235" cy="400"></circle><circle r="22" cx="577" cy="362"></circle><circle r="14" cx="427" cy="234"></circle><circle r="12" cx="847" cy="83"></circle><circle r="21" cx="371" cy="6"></circle><circle r="21" cx="271" cy="194"></circle><circle r="25" cx="165" cy="389"></circle><circle r="10" cx="815" cy="449"></circle><circle r="12" cx="696" cy="465"></circle><circle r="10" cx="740" cy="174"></circle><circle r="20" cx="105" cy="475"></circle><circle r="12" cx="258" cy="509"></circle><circle r="26" cx="777" cy="404"></circle><circle r="7" cx="849" cy="365"></circle><circle r="17" cx="378" cy="316"></circle><circle r="5" cx="542" cy="448"></circle><circle r="3" cx="517" cy="113"></circle><circle r="3" cx="927" cy="317"></circle><circle r="17" cx="658" cy="77"></circle><circle r="11" cx="87" cy="280"></circle><circle r="19" cx="549" cy="531"></circle><circle r="17" cx="908" cy="502"></circle><circle r="23" cx="129" cy="97"></circle><circle r="16" cx="503" cy="23"></circle><circle r="4" cx="567" cy="71"></circle><circle r="27" cx="616" cy="425"></circle><circle r="17" cx="231" cy="262"></circle><circle r="19" cx="316" cy="366"></circle><circle r="20" cx="631" cy="331"></circle><circle r="15" cx="772" cy="23"></circle><circle r="5" cx="490" cy="520"></circle><circle r="4" cx="369" cy="227"></circle><circle r="24" cx="418" cy="367"></circle><circle r="3" cx="298" cy="13"></circle><circle r="12" cx="91" cy="152"></circle><circle r="26" cx="613" cy="122"></circle><circle r="24" cx="515" cy="274"></circle><circle r="15" cx="433" cy="126"></circle><circle r="16" cx="304" cy="429"></circle><circle r="27" cx="758" cy="319"></circle><circle r="25" cx="98" cy="2"></circle><circle r="4" cx="782" cy="505"></circle><circle r="11" cx="630" cy="523"></circle><circle r="5" cx="734" cy="75"></circle><circle r="23" cx="235" cy="341"></circle><circle r="11" cx="871" cy="227"></circle><circle r="8" cx="461" cy="185"></circle><circle r="20" cx="27" cy="318"></circle><circle r="23" cx="922" cy="257"></circle><circle r="11" cx="268" cy="84"></circle><circle r="22" cx="156" cy="506"></circle><circle r="27" cx="1" cy="52"></circle><circle r="21" cx="361" cy="169"></circle><circle r="9" cx="562" cy="219"></circle><circle r="13" cx="566" cy="7"></circle><circle r="21" cx="424" cy="443"></circle><circle r="12" cx="430" cy="31"></circle><circle r="27" cx="34" cy="245"></circle><circle r="27" cx="290" cy="138"></circle><circle r="27" cx="344" cy="503"></circle><circle r="8" cx="53" cy="107"></circle><circle r="14" cx="837" cy="526"></circle><circle r="5" cx="694" cy="210"></circle><circle r="16" cx="81" cy="211"></circle><circle r="12" cx="502" cy="368"></circle><circle r="10" cx="786" cy="236"></circle><circle r="9" cx="835" cy="16"></circle><circle r="15" cx="436" cy="308"></circle><circle r="15" cx="76" cy="536"></circle><circle r="23" cx="885" cy="142"></circle><circle r="9" cx="98" cy="415"></circle><circle r="17" cx="958" cy="1"></circle><circle r="9" cx="622" cy="23"></circle><circle r="27" cx="471" cy="78"></circle><circle r="3" cx="85" cy="60"></circle><circle r="24" cx="865" cy="420"></circle><circle r="5" cx="521" cy="177"></circle><circle r="19" cx="38" cy="6"></circle><circle r="16" cx="145" cy="37"></circle><circle r="5" cx="216" cy="179"></circle></g></svg>