<svg id="visual" viewBox="0 0 960 540" width="960" height="540" xmlns="http://www.w3.org/2000/svg" xmlns:xlink="http://www.w3.org/1999/xlink" version="1.1"><g stroke-width="1" stroke-linejoin="bevel"><path d="M516.3 239L505.3 171L439.7 150Z" fill="#8830a0" stroke="#8830a0"></path><path d="M439.7 150L419.7 299L516.3 239Z" fill="#401a5e" stroke="#401a5e"></path><path d="M439.7 150L356 186L419.7 299Z" fill="#592377" stroke="#592377"></path><path d="M496.3 0L407.7 102L439.7 150Z" fill="#481d67" stroke="#481d67"></path><path d="M439.7 150L407.7 102L356 186Z" fill="#481d67" stroke="#481d67"></path><path d="M633 195L567.3 128L505.3 171Z" fill="#6b2887" stroke="#6b2887"></path><path d="M505.3 171L567.3 128L439.7 150Z" fill="#7e2e98" stroke="#7e2e98"></path><path d="M419.7 299L508.3 349L516.3 239Z" fill="#592377" stroke="#592377"></path><path d="M516.3 239L633 195L505.3 171Z" fill="#8830a0" stroke="#8830a0"></path><path d="M508.3 349L621 249L516.3 239Z" fill="#8830a0" stroke="#8830a0"></path><path d="M287 281L327 338L419.7 299Z" fill="#481d67" stroke="#481d67"></path><path d="M419.7 299L418.7 394L508.3 349Z" fill="#31144e" stroke="#31144e"></path><path d="M621 249L633 195L516.3 239Z" fill="#31144e" stroke="#31144e"></path><path d="M246.3 270L287 281L356 186Z" fill="#50206f" stroke="#50206f"></path><path d="M356 186L287 281L419.7 299Z" fill="#481d67" stroke="#481d67"></path><path d="M327 338L418.7 394L419.7 299Z" fill="#592377" stroke="#592377"></path><path d="M423.7 0L320 71L407.7 102Z" fill="#481d67" stroke="#481d67"></path><path d="M407.7 102L320 71L356 186Z" fill="#381756" stroke="#381756"></path><path d="M496.3 0L423.7 0L407.7 102Z" fill="#742b90" stroke="#742b90"></path><path d="M216.3 153L246.3 270L356 186Z" fill="#50206f" stroke="#50206f"></path><path d="M287 281L238.3 384L327 338Z" fill="#62267f" stroke="#62267f"></path><path d="M615 0L496.3 0L567.3 128Z" fill="#401a5e" stroke="#401a5e"></path><path d="M567.3 128L496.3 0L439.7 150Z" fill="#8830a0" stroke="#8830a0"></path><path d="M238.3 384L357 413L327 338Z" fill="#401a5e" stroke="#401a5e"></path><path d="M327 338L357 413L418.7 394Z" fill="#62267f" stroke="#62267f"></path><path d="M633 195L654 87L567.3 128Z" fill="#8830a0" stroke="#8830a0"></path><path d="M618 430L616 392L508.3 349Z" fill="#50206f" stroke="#50206f"></path><path d="M508.3 349L616 392L621 249Z" fill="#62267f" stroke="#62267f"></path><path d="M621 249L735.7 216L633 195Z" fill="#8830a0" stroke="#8830a0"></path><path d="M633 195L735.7 216L654 87Z" fill="#7e2e98" stroke="#7e2e98"></path><path d="M496.3 478L508.3 349L418.7 394Z" fill="#742b90" stroke="#742b90"></path><path d="M320 71L216.3 153L356 186Z" fill="#8830a0" stroke="#8830a0"></path><path d="M423.7 0L327 0L320 71Z" fill="#50206f" stroke="#50206f"></path><path d="M320 71L216.3 92L216.3 153Z" fill="#481d67" stroke="#481d67"></path><path d="M357 413L398.7 463L418.7 394Z" fill="#401a5e" stroke="#401a5e"></path><path d="M654 87L615 0L567.3 128Z" fill="#742b90" stroke="#742b90"></path><path d="M398.7 463L496.3 478L418.7 394Z" fill="#6b2887" stroke="#6b2887"></path><path d="M212.3 0L216.3 92L320 71Z" fill="#62267f" stroke="#62267f"></path><path d="M496.3 478L618 430L508.3 349Z" fill="#31144e" stroke="#31144e"></path><path d="M733.7 305L735.7 216L621 249Z" fill="#481d67" stroke="#481d67"></path><path d="M206.3 420L238.3 384L117.7 371Z" fill="#50206f" stroke="#50206f"></path><path d="M246.3 270L238.3 384L287 281Z" fill="#742b90" stroke="#742b90"></path><path d="M357 413L305 540L398.7 463Z" fill="#381756" stroke="#381756"></path><path d="M733.7 305L621 249L616 392Z" fill="#6b2887" stroke="#6b2887"></path><path d="M654 87L783.7 0L615 0Z" fill="#592377" stroke="#592377"></path><path d="M738.7 356L733.7 305L616 392Z" fill="#592377" stroke="#592377"></path><path d="M742.7 414L738.7 356L616 392Z" fill="#381756" stroke="#381756"></path><path d="M844.3 175L775.7 121L735.7 216Z" fill="#7e2e98" stroke="#7e2e98"></path><path d="M238.3 384L206.3 420L357 413Z" fill="#481d67" stroke="#481d67"></path><path d="M117.7 371L238.3 384L246.3 270Z" fill="#50206f" stroke="#50206f"></path><path d="M117.7 371L246.3 270L77.7 308Z" fill="#7e2e98" stroke="#7e2e98"></path><path d="M327 0L212.3 0L320 71Z" fill="#401a5e" stroke="#401a5e"></path><path d="M82.7 199L246.3 270L216.3 153Z" fill="#481d67" stroke="#481d67"></path><path d="M398.7 463L430.7 540L496.3 478Z" fill="#381756" stroke="#381756"></path><path d="M496.3 478L544.3 540L618 430Z" fill="#592377" stroke="#592377"></path><path d="M305 540L430.7 540L398.7 463Z" fill="#7e2e98" stroke="#7e2e98"></path><path d="M825.3 269L735.7 216L733.7 305Z" fill="#6b2887" stroke="#6b2887"></path><path d="M735.7 216L775.7 121L654 87Z" fill="#31144e" stroke="#31144e"></path><path d="M430.7 540L544.3 540L496.3 478Z" fill="#481d67" stroke="#481d67"></path><path d="M618 430L742.7 414L616 392Z" fill="#592377" stroke="#592377"></path><path d="M601 540L742.7 414L618 430Z" fill="#6b2887" stroke="#6b2887"></path><path d="M738.7 356L825.3 269L733.7 305Z" fill="#592377" stroke="#592377"></path><path d="M544.3 540L601 540L618 430Z" fill="#62267f" stroke="#62267f"></path><path d="M206.3 420L305 540L357 413Z" fill="#8830a0" stroke="#8830a0"></path><path d="M82.7 199L216.3 153L98.7 81Z" fill="#401a5e" stroke="#401a5e"></path><path d="M206.3 420L180.3 540L305 540Z" fill="#50206f" stroke="#50206f"></path><path d="M98.7 81L216.3 153L216.3 92Z" fill="#592377" stroke="#592377"></path><path d="M841.3 385L825.3 269L738.7 356Z" fill="#481d67" stroke="#481d67"></path><path d="M131.7 0L98.7 81L216.3 92Z" fill="#31144e" stroke="#31144e"></path><path d="M212.3 0L131.7 0L216.3 92Z" fill="#401a5e" stroke="#401a5e"></path><path d="M82.7 199L77.7 308L246.3 270Z" fill="#8830a0" stroke="#8830a0"></path><path d="M825.3 269L844.3 175L735.7 216Z" fill="#381756" stroke="#381756"></path><path d="M857.3 0L783.7 0L775.7 121Z" fill="#481d67" stroke="#481d67"></path><path d="M775.7 121L783.7 0L654 87Z" fill="#381756" stroke="#381756"></path><path d="M848.3 468L841.3 385L742.7 414Z" fill="#50206f" stroke="#50206f"></path><path d="M742.7 414L841.3 385L738.7 356Z" fill="#62267f" stroke="#62267f"></path><path d="M960 199L880.3 129L844.3 175Z" fill="#381756" stroke="#381756"></path><path d="M83.7 475L206.3 420L117.7 371Z" fill="#481d67" stroke="#481d67"></path><path d="M131.7 540L180.3 540L206.3 420Z" fill="#7e2e98" stroke="#7e2e98"></path><path d="M960 199L844.3 175L825.3 269Z" fill="#481d67" stroke="#481d67"></path><path d="M844.3 175L880.3 129L775.7 121Z" fill="#8830a0" stroke="#8830a0"></path><path d="M0 382L83.7 475L117.7 371Z" fill="#31144e" stroke="#31144e"></path><path d="M880.3 129L857.3 0L775.7 121Z" fill="#8830a0" stroke="#8830a0"></path><path d="M0 102L0 204L82.7 199Z" fill="#401a5e" stroke="#401a5e"></path><path d="M82.7 199L0 293L77.7 308Z" fill="#381756" stroke="#381756"></path><path d="M77.7 308L0 382L117.7 371Z" fill="#381756" stroke="#381756"></path><path d="M0 102L82.7 199L98.7 81Z" fill="#6b2887" stroke="#6b2887"></path><path d="M83.7 475L131.7 540L206.3 420Z" fill="#50206f" stroke="#50206f"></path><path d="M601 540L779.7 540L742.7 414Z" fill="#401a5e" stroke="#401a5e"></path><path d="M0 204L0 293L82.7 199Z" fill="#31144e" stroke="#31144e"></path><path d="M779.7 540L848.3 468L742.7 414Z" fill="#50206f" stroke="#50206f"></path><path d="M960 281L960 199L825.3 269Z" fill="#401a5e" stroke="#401a5e"></path><path d="M0 0L0 102L98.7 81Z" fill="#481d67" stroke="#481d67"></path><path d="M0 293L0 382L77.7 308Z" fill="#742b90" stroke="#742b90"></path><path d="M83.7 475L0 540L131.7 540Z" fill="#50206f" stroke="#50206f"></path><path d="M131.7 0L0 0L98.7 81Z" fill="#592377" stroke="#592377"></path><path d="M960 281L825.3 269L960 329Z" fill="#6b2887" stroke="#6b2887"></path><path d="M880.3 129L960 113L857.3 0Z" fill="#50206f" stroke="#50206f"></path><path d="M0 382L0 440L83.7 475Z" fill="#481d67" stroke="#481d67"></path><path d="M960 329L825.3 269L841.3 385Z" fill="#481d67" stroke="#481d67"></path><path d="M960 199L960 113L880.3 129Z" fill="#381756" stroke="#381756"></path><path d="M960 428L960 329L841.3 385Z" fill="#742b90" stroke="#742b90"></path><path d="M779.7 540L859.3 540L848.3 468Z" fill="#7e2e98" stroke="#7e2e98"></path><path d="M848.3 468L960 428L841.3 385Z" fill="#592377" stroke="#592377"></path><path d="M960 113L960 0L857.3 0Z" fill="#62267f" stroke="#62267f"></path><path d="M960 540L960 428L848.3 468Z" fill="#31144e" stroke="#31144e"></path><path d="M0 440L0 540L83.7 475Z" fill="#742b90" stroke="#742b90"></path><path d="M859.3 540L960 540L848.3 468Z" fill="#481d67" stroke="#481d67"></path></g></svg>