<svg id="visual" viewBox="0 0 900 450" width="900" height="450" xmlns="http://www.w3.org/2000/svg" xmlns:xlink="http://www.w3.org/1999/xlink" version="1.1"><rect x="0" y="0" width="900" height="450" fill="#31144e"></rect><path d="M0 201L21.5 213.2C43 225.3 86 249.7 128.8 252.3C171.7 255 214.3 236 257.2 232.2C300 228.3 343 239.7 385.8 252.3C428.7 265 471.3 279 514.2 282C557 285 600 277 642.8 265.8C685.7 254.7 728.3 240.3 771.2 245.2C814 250 857 274 878.5 286L900 298L900 451L878.5 451C857 451 814 451 771.2 451C728.3 451 685.7 451 642.8 451C600 451 557 451 514.2 451C471.3 451 428.7 451 385.8 451C343 451 300 451 257.2 451C214.3 451 171.7 451 128.8 451C86 451 43 451 21.5 451L0 451Z" fill="#8830a0" stroke-linecap="round" stroke-linejoin="miter"></path></svg>